<svg xmlns="http://www.w3.org/2000/svg" width="22" height="24" fill="none" viewBox="0 0 22 24"><path fill="#2A81FB" d="M7.563 24C5.724 24 3.128 23.463 0.535 21.13L2.57 18.868C6.206 22.141 9.995 20.848 11.165 19.756C11.243 19.677 11.321 19.603 11.399 19.526C7.569 19.153 4.77 16.44 4.577 16.249C1.644 13.36 0.977 9.441 3.065 7.319C5.153 5.197 9.08 5.797 12.015 8.676C12.272 8.922 15.131 11.728 15.692 15.281C16.5373 14.651 17.224 13.8325 17.6974 12.8906C18.1708 11.9486 18.4179 10.9092 18.419 9.855C18.4263 8.96321 18.2534 8.07914 17.9106 7.25585C17.5677 6.43256 17.0621 5.68703 16.424 5.064C15.09 3.761 13.202 3.044 11.118 3.044V0C13.998 0 16.637 1.024 18.548 2.882C20.429 4.712 21.465 7.186 21.465 9.855C21.4618 11.8053 20.8786 13.7107 19.7895 15.3286C18.7004 16.9465 17.1547 18.204 15.349 18.941C14.933 20.041 14.229 21.058 13.243 21.981C12.273 22.886 10.378 23.889 7.963 23.991C7.833 23.998 7.701 24 7.563 24V24ZM6.283 9.077C5.858 9.077 5.493 9.192 5.237 9.452C4.488 10.214 4.962 12.356 6.717 14.085L6.725 14.094C6.75 14.118 9.496 16.781 12.75 16.508V16.503C12.765 13.63 9.942 10.906 9.913 10.878L9.893 10.859C8.85 9.832 7.37 9.077 6.283 9.077Z"/></svg>